<svg width="128" height="128" viewBox="0 0 128 128" fill="none" xmlns="http://www.w3.org/2000/svg">
<g clip-path="url(#clip0_3_2)">
<path d="M25.6406 88.5156C25.6406 89.4531 25.4375 90.1094 25.0312 90.4844C24.6562 90.8281 24 91 23.0625 91H13.0781C12.1406 91 11.4688 90.8281 11.0625 90.4844C10.6875 90.1094 10.5 89.4531 10.5 88.5156V36.3438C10.5 33.2188 10.7812 30.75 11.3438 28.9375C11.9375 27.0938 13.0625 25.7812 14.7188 25C16.4062 24.1875 18.8594 23.7812 22.0781 23.7812H34.5C50.8125 23.7812 58.9688 30.0469 58.9688 42.5781C58.9688 46.3906 58.3281 49.5156 57.0469 51.9531C55.7656 54.3906 54.1719 56.2969 52.2656 57.6719C50.3594 59.0156 48.4844 60.0312 46.6406 60.7188V60.9531C48.7344 62.3281 50.7188 64.1406 52.5938 66.3906C54.5 68.6094 56.2188 71.0312 57.75 73.6562C59.2812 76.25 60.5781 78.8281 61.6406 81.3906C62.7031 83.9219 63.4375 86.1875 63.8438 88.1875C64.0312 89.125 64.0312 89.8281 63.8438 90.2969C63.6875 90.7656 63.1562 91 62.25 91H51.4219C50.6094 91 49.8906 90.8281 49.2656 90.4844C48.6719 90.1406 48.125 89.3438 47.625 88.0938C45.25 82.125 42.5156 77.2656 39.4219 73.5156C36.3281 69.7344 33.3438 66.7031 30.4688 64.4219C28.625 62.9531 27.7031 61.9062 27.7031 61.2812C27.7031 60.7812 28 60.0938 28.5938 59.2188C28.9688 58.6875 29.5156 58.0469 30.2344 57.2969C30.9531 56.5469 31.5781 55.9844 32.1094 55.6094C32.6406 55.2344 33.0625 55 33.375 54.9062C33.7188 54.8125 34.2344 54.7656 34.9219 54.7656C37.2344 54.7656 39.1562 53.9688 40.6875 52.375C42.25 50.7812 43.0312 48.2656 43.0312 44.8281C43.0312 41.5781 42.2031 39.2031 40.5469 37.7031C38.9219 36.1719 36.6719 35.4062 33.7969 35.4062H30.9844C28.9219 35.4062 27.5156 35.8438 26.7656 36.7188C26.0156 37.5938 25.6406 39.0938 25.6406 41.2188V88.5156Z" fill="black"/>
<path d="M119.969 99.4062C119.219 99.9375 117.875 100.672 115.938 101.609C114.031 102.516 111.391 103.328 108.016 104.047C104.641 104.766 100.406 105.125 95.3125 105.125C88.4688 105.125 82.5625 104 77.5938 101.75C72.6562 99.4688 68.8594 95.7969 66.2031 90.7344C63.5469 85.6406 62.2188 78.9062 62.2188 70.5312C62.2188 59.375 65.0781 50.7812 70.7969 44.75C76.5156 38.6875 84.4844 35.6562 94.7031 35.6562C99.5781 35.6562 103.469 36.125 106.375 37.0625C109.281 38 111.484 39.0938 112.984 40.3438C114.484 41.5938 115.531 42.6875 116.125 43.625C116.344 43.9688 116.5 44.2812 116.594 44.5625C116.688 44.8125 116.75 45.2188 116.781 45.7812C116.875 46.5312 116.891 47.625 116.828 49.0625C116.797 50.5 116.688 51.7656 116.5 52.8594C116.375 53.5469 116.172 54 115.891 54.2188C115.766 54.3438 115.547 54.4531 115.234 54.5469C114.922 54.6406 114.453 54.6875 113.828 54.6875C112.828 54.6875 111.656 54.6562 110.312 54.5938C109 54.5 108.031 54.4062 107.406 54.3125C106.656 54.1875 106.109 54.0156 105.766 53.7969C105.453 53.5469 105.109 53.1719 104.734 52.6719C104.359 52.1719 103.844 51.5938 103.188 50.9375C102.531 50.25 101.531 49.6406 100.188 49.1094C98.875 48.5781 97.0469 48.3125 94.7031 48.3125C89.5469 48.3125 85.5 50.1875 82.5625 53.9375C79.625 57.6562 78.1562 63.0156 78.1562 70.0156C78.1562 77.3594 79.6719 82.9375 82.7031 86.75C85.7656 90.5625 90.1562 92.4688 95.875 92.4688C98.75 92.4688 100.859 92.2656 102.203 91.8594C103.578 91.4219 104.453 91.0938 104.828 90.875V76.2969C104.828 75.3906 104.984 74.7031 105.297 74.2344C106.703 72.1719 108.672 70 111.203 67.7188C111.672 67.3438 112.078 67.1562 112.422 67.1562C112.797 67.1562 113.188 67.3438 113.594 67.7188C114.969 68.9062 116.125 70.0469 117.062 71.1406C118 72.2031 118.812 73.2344 119.5 74.2344C119.812 74.7344 119.969 75.4219 119.969 76.2969V99.4062Z" fill="black"/>
</g>
<defs>
<clipPath id="clip0_3_2">
<rect width="128" height="128" fill="white"/>
</clipPath>
</defs>
</svg>
