<svg width="457" height="445" viewBox="0 0 457 445" fill="none" xmlns="http://www.w3.org/2000/svg">
<path d="M2.67186 4.45469C0.726552 10.6109 0.985927 84.332 3.06093 86.3328C3.83905 87.1024 7.34061 88.3336 10.8422 88.9492C14.2141 89.5649 17.0672 90.1805 17.1969 90.3344C17.3266 90.3344 17.7156 144.663 18.1047 210.997C18.8828 328.12 19.0125 331.659 21.3469 333.814C23.4219 335.507 30.1656 335.969 54.6766 335.969C82.0406 335.969 85.6719 335.661 88.1359 333.198C90.8594 330.582 90.8594 329.505 91.2484 272.867L91.5078 215.152L100.586 214.691C105.644 214.383 112.777 214.691 116.537 215.152L123.411 216.23L128.728 228.696C131.581 235.622 138.714 251.32 144.68 263.633C150.516 275.945 159.723 295.337 165.17 306.727C177.102 332.121 179.047 334.584 189.033 335.815L196.555 336.738L197.462 346.28C198.889 361.517 202.002 373.83 207.837 387.373C215.23 404.457 231.311 423.541 245.836 432.468C266.456 445.088 260.231 444.473 363.852 444.473H455.93V354.437V264.402H387.195H318.461L318.072 292.875C317.942 308.573 318.072 322.887 318.461 324.734L319.109 328.273H353.477H387.844V348.281V368.289H341.545C290.319 368.289 289.022 367.981 281.241 358.131C273.978 348.897 273.719 346.434 273.719 293.952C273.719 246.241 273.719 245.626 276.702 240.393C280.981 232.852 290.319 225.926 299.138 223.925C304.455 222.694 329.614 222.232 381.359 222.386L455.93 222.694V184.063C455.93 153.128 455.541 145.125 454.114 142.97C452.428 140.508 446.203 140.354 367.223 140.816C272.811 141.585 276.053 141.123 255.692 152.205C244.798 158.207 242.075 158.669 243.112 154.667C246.484 140.816 247.003 135.737 247.003 114.344C247.003 94.7977 246.484 88.0258 244.15 76.7906C235.85 37.3906 212.766 11.2266 178.658 2.91563C170.228 0.760941 156.222 0.453128 86.3203 0.453128H3.96874L2.67186 4.45469ZM178.009 28.0023C202.909 35.5438 217.305 51.8578 223.789 79.8688C226.902 93.7203 227.809 124.809 225.216 138.969C221.973 157.13 215.23 171.443 202.78 186.372C191.756 199.608 188.125 201.455 185.142 195.76C184.105 193.759 186.05 190.835 194.869 180.37C211.469 160.823 217.953 142.047 217.953 113.574C217.953 80.9461 208.486 58.0141 190.2 45.8555C175.675 36.3133 172.562 35.8516 101.494 35.8516C59.8641 35.8516 36.65 36.4672 34.9641 37.3906C32.8891 38.7758 32.5 40.7766 32.5 52.3195V65.7094L38.0766 72.4813L43.5234 79.0992L44.1719 190.22C44.5609 251.32 45.2094 302.109 45.8578 303.187C46.3766 304.11 49.3594 305.495 52.6016 306.111C58.8266 307.188 61.8094 309.959 60.5125 313.652C59.9937 315.345 57.5297 315.961 50.2672 315.961C34.3156 315.961 35.7422 328.12 35.3531 196.991L35.0937 84.332L30.5547 78.9453C24.4594 71.4039 23.4219 67.2484 23.4219 49.5492C23.4219 34.4664 23.5516 34.0047 27.1828 29.5414L30.9437 25.0781H99.6781C163.225 25.0781 168.931 25.232 178.009 28.0023ZM50.6562 50.4727C54.0281 55.3977 48.9703 62.9391 44.5609 59.5531C40.0219 56.1672 41.5781 48.1641 46.7656 48.1641C48.0625 48.1641 49.7484 49.2414 50.6562 50.4727ZM163.355 88.1797C170.098 92.1813 172.562 98.7992 172.562 112.805C172.562 126.502 170.487 131.427 162.447 136.968L156.352 141.277L123.67 141.739L90.8594 142.201V113.728V85.1016H124.578C155.573 85.1016 158.816 85.4094 163.355 88.1797ZM201.223 121.423C203.428 124.655 201.223 128.965 197.073 128.965C193.572 128.965 192.275 124.655 194.609 121.27C196.684 118.345 199.019 118.345 201.223 121.423ZM151.683 168.057C152.591 170.058 152.591 171.597 151.423 173.444C149.997 175.752 146.625 175.906 120.687 175.598L91.5078 175.137L91.1187 171.443C90.8594 169.442 91.3781 167.134 92.4156 166.518C93.3234 165.748 106.811 165.133 122.244 165.133C148.441 165.133 150.516 165.287 151.683 168.057ZM434.531 168.211C436.736 170.827 437.125 173.29 437.125 185.141C437.125 196.222 436.736 199.3 435.18 200.07C432.067 201.455 431.419 199.608 431.548 189.758C431.808 174.983 436.736 175.906 358.923 175.906C284.094 175.906 284.094 175.906 265.937 186.372C249.597 195.76 237.147 212.536 229.495 235.468C226.642 243.933 226.512 246.703 225.994 291.952C225.475 344.741 226.383 353.822 233.645 371.059C241.686 390.144 260.75 405.842 282.019 410.613C295.636 413.691 423.767 413.999 427.269 410.921C429.214 409.228 429.603 403.226 430.252 355.823C431.03 302.879 431.03 302.571 428.177 299.185C425.453 295.953 424.545 295.953 384.731 295.953C344.528 295.953 344.009 295.953 343.361 292.721C341.675 285.026 341.027 285.18 387.455 285.18H430.9L434.661 289.643L438.422 294.106V354.745V415.538L435.05 419.232L431.678 422.926H354.384C281.889 422.926 276.572 422.772 269.828 420.002C247.781 411.075 231.83 395.223 223.141 373.676C217.045 358.285 216.397 350.744 216.916 294.414C217.305 245.934 217.564 242.24 220.287 233.313C226.512 212.69 238.573 193.759 252.709 182.524C260.491 176.522 276.053 168.673 284.613 166.672C287.595 166.056 321.833 165.441 360.998 165.287C430.252 165.133 431.938 165.133 434.531 168.211ZM422.989 193.759C424.156 195.452 424.286 196.837 423.248 198.684C421.303 202.378 417.542 202.84 415.597 199.762C411.966 193.913 419.098 188.219 422.989 193.759ZM160.372 236.237C167.245 250.089 177.231 270.866 182.678 282.409C189.681 297.184 193.312 303.648 194.998 303.648C197.852 303.648 199.019 307.034 197.981 312.113C196.814 317.346 190.2 317.654 187.995 312.421C187.217 310.574 176.323 288.412 164.003 263.325C151.553 238.238 141.437 216.691 141.437 215.46C141.437 212.536 142.734 211.305 145.458 211.305C147.144 211.305 151.553 218.692 160.372 236.237ZM68.0344 281.486C70.6281 284.564 70.6281 285.641 67.775 289.797C65.7 292.721 64.9219 293.029 62.5875 291.49C59.475 289.489 58.8266 283.795 61.2906 280.87C63.3656 278.408 65.5703 278.562 68.0344 281.486ZM418.32 389.836C420.525 392.606 420.525 393.068 418.45 396.762C416.116 400.917 413.911 401.687 411.447 398.762C408.334 395.069 410.409 386.758 414.43 386.758C415.338 386.758 417.023 388.143 418.32 389.836Z" fill="white"/>
</svg>
